<?xml version="1.0" encoding="utf-8"?><svg xmlns="http://www.w3.org/2000/svg" xmlns:xlink="http://www.w3.org/1999/xlink"><symbol viewBox="0 0 344.96 344.96" id="check" xmlns="http://www.w3.org/2000/svg"><g data-name="Слой 2"><path d="M321.85 86.24l-40-23.11-23.1-40H212.5L172.48 0l-40 23.11H86.24l-23.11 40-40 23.1v46.21L0 172.48l23.11 40v46.21l40 23.11 23.11 40h46.21l40 23.1 40-23.11h46.21l23.11-40 40-23.11V212.5l23.11-40-23.11-40V86.24zM156.91 243.07a16.79 16.79 0 01-23.34 0l-50.45-50.44a16.19 16.19 0 010-22.89l13.35-13.35a16.19 16.19 0 0122.89 0l25.87 25.87 80.34-80.35a16.19 16.19 0 0122.89 0l13.35 13.35a16.19 16.19 0 010 22.89z" data-name="Capa 1"/></g></symbol><symbol viewBox="0 0 25.29 24.51" id="header-svg1" xmlns="http://www.w3.org/2000/svg"><g data-name="Слой 2"><path d="M25.29 4.78c.05-1-1.14-1.35-1.4-2a3.79 3.79 0 00.32-1.68c-.05-.35-.83.44-1 .29s.11-1-.18-1.38c-.15-.21-.49 1.33-.74 1.44s-.5-.35-.83-.95c-.53-1-.24 1.13-.19 1.53a3.3 3.3 0 00-2.69 2.37c-.4 1.35-1.58 4.32-3.87 4.47C12 9 9 6.51 7.57 5.05c-.76-.77-1.31-3-2.64-2.83-.6.08-1.07.93-1.77 1.11 0 0-3.6.89-3.12 1.86C.33 5.76 1.9 6.5 3.1 7a.1.1 0 01.07.13.11.11 0 01-.17.09C2 7 1 7 2 7.88A14.14 14.14 0 004.1 9a.1.1 0 01.06.14.11.11 0 01-.16.03c-.72-.17-1.38-.25-1.34.07C2.78 10 5.52 12 5.52 12c-.34.43 1.07 2 1.29 2.15-.32-.11-.67 0-.21.43.67.61.82 1.6 1.4 2.18 1.7 1.69 4.25.41 5.56 3.26l.63 1.27a.62.62 0 010 .5.57.57 0 01-.39.3l-1.7.35a.51.51 0 00-.4.54.5.5 0 00.55.45l1.68-.15a.12.12 0 01.13.07.14.14 0 010 .15l-.14.17a.5.5 0 00.07.7.46.46 0 00.32.11.49.49 0 00.38-.18l.71-.85a.56.56 0 01.55-.19l2.47.53a.49.49 0 00.58-.33.5.5 0 00-.31-.63l-2.24-.75a.53.53 0 01-.37-.46c-.06-.39-.13-.9-.18-1.28a.54.54 0 01.38-.58c1.13-.34 1.74-1.72 2.47-2.65a2.33 2.33 0 011.35-.84c2.9-.56 3.9-3.6 4.22-6.82.18-1.9-.71-2.67-1.18-4.08.59-.18 1.24-1.06 2.15-.59zm-3.23-1.06a.39.39 0 01-.39-.39.4.4 0 01.39-.4.39.39 0 01.4.4.39.39 0 01-.4.39z" data-name="Capa 1"/></g></symbol><symbol viewBox="0 0 475.7 323.5" id="header-svg2" xmlns="http://www.w3.org/2000/svg"><g data-name="Слой 2"><path d="M473.01 79.4l-51.26-53.47 22.31-14.22 1.3-11.09L435.02 0l-26.84 19.3-33.48.03-20.5-12.52-7.34 1.5.1 8.14 13.22 14.63-1.74 7.69-155.5 16.72L41.87 51l-17.36 7.27-12.78 16.25-6.58 38-1.16 27.31L0 165.34l1.1 25.41 4.48.91 6.52-7.17 5.3-23.84-4.3-33.07 1.5-.22 10.09 50.34-6.87 43.69 6.27 87.19.6 9.66 6.12 5.22 27.06.04 8.71-2.63-24.2-39.42 12.01-50.06 6.29.01 21.94 66.56 11.31 17.08 5.58 3.44 29.87.02 3.83-4.8-25.86-15.88-17.52-53.98 4.39-8.76 10.3.95 6.46 15.83 9.37-15.43 9.07 15.5 7.69-16.83 22.62-17.39 80.28-7.69 13.47 16.48 11.36 80.53 5.97 11.57 27.36-.01 2.95-4.34-16.63-23.14-2-44.07 8.98 4.99 9.46 29.27 12.02 38.01 5.4 4.18 24.47.01 2.03-5.52-7.15-6.63-23.08-45.1 5.32-47.26 25.86-19.13 37.67-69.97 43.36-20.02 39.87-4.54 3.42-3.7 5.57-15.73-2.68-6.5z" data-name="Capa 1"/></g></symbol><symbol viewBox="0 0 47.41 44.76" id="header-svg3" xmlns="http://www.w3.org/2000/svg"><g data-name="Слой 2"><g data-name="Capa 1"><path d="M47.07 3.14C43-1 35.21-1 27.86 2.79a13.37 13.37 0 004 10.38 13.69 13.69 0 008 4c5.64-6.79 8.58-12.67 7.21-14.03zm-7.76 2.6A1.62 1.62 0 0137 3.45a1.61 1.61 0 012.29 0 1.62 1.62 0 01.02 2.29z"/><path d="M25.2 4.34c-.55.36-1.08.73-1.61 1.13l-1.26-.67a2.87 2.87 0 00-3.33.5l-8.86 8.87a2.83 2.83 0 00.7 4.52l2 1.06A44.86 44.86 0 009.44 32L.69 35a1 1 0 00-.1 1.89l3.81 1.8a3.51 3.51 0 011.7 1.7l1.8 3.81a1 1 0 001.89-.1l3-8.77c4.1-.67 11.23-3.81 17.42-8.54l.69 2.14a1.15 1.15 0 00.84.77 1.13 1.13 0 001.09-.31l.75-.74a3.32 3.32 0 001-2.14l.26-3.76a83.43 83.43 0 003.08-3.26A16.48 16.48 0 0130 15a16.17 16.17 0 01-4.8-10.66z"/></g></g></symbol><symbol viewBox="0 0 550.8 432.77" id="mail" xmlns="http://www.w3.org/2000/svg"><g data-name="Слой 2"><g data-name="Capa 1"><path d="M501.61 432.77a47.09 47.09 0 0032.23-12.16l-156-156.06c-3.74 2.68-7.37 5.29-10.8 7.77q-17.52 12.9-28.43 20.13t-29.1 14.75q-18.13 7.55-33.81 7.53h-.61q-15.68 0-33.81-7.53t-29.05-14.75q-10.92-7.21-28.43-20.13c-3.26-2.39-6.87-5-10.77-7.81L17 420.61a47.07 47.07 0 0032.23 12.16zM31.05 166.29A163 163 0 010 139.54V377l137.54-137.57q-41.26-28.81-106.49-73.14zm489.01 0q-62.8 42.5-106.75 73.19L550.8 377V139.54a170.06 170.06 0 01-30.74 26.75z"/><path d="M501.61 0H49.18Q25.51 0 12.76 16T0 55.94q0 19.35 16.9 42t36 35.5q10.44 7.38 63 43.8c18.92 13.11 35.37 24.54 49.51 34.4 12.05 8.39 22.44 15.66 31 21.7l4.59 3.27 8.48 6.1q10 7.23 16.59 11.69t16 10a92.82 92.82 0 0017.67 8.3 48.7 48.7 0 0015.37 2.77h.61a48.75 48.75 0 0015.37-2.77 92.21 92.21 0 0017.67-8.3q9.38-5.54 16-10t16.6-11.69l8.47-6.1c2.05-1.47 3.6-2.58 4.59-3.27l31.11-21.62 112.74-78.28a146.09 146.09 0 0037.49-37.8q15-22.12 15.06-46.41 0-20.3-14.6-34.74T501.61 0z"/></g></g></symbol><symbol viewBox="0 0 348.08 347.29" id="phone" xmlns="http://www.w3.org/2000/svg"><g data-name="Слой 2"><path d="M340.27 274.69l-53.75-53.76c-10.71-10.67-28.44-10.34-39.52.74l-27.08 27.08-5.35-3c-17.1-9.48-40.5-22.47-65.14-47.12s-37.7-48.14-47.2-65.25c-1-1.82-2-3.57-2.92-5.23L117.49 110l8.93-9c11.1-11.1 11.41-28.83.73-39.52L73.39 7.8C62.71-2.88 45-2.56 33.87 8.54L18.72 23.78l.42.41a87.66 87.66 0 00-12.49 22A91.5 91.5 0 001.1 68.55c-7.1 58.84 19.79 112.62 92.77 185.6C194.74 355 276 347.4 279.54 347a90.64 90.64 0 0022.4-5.62A87.59 87.59 0 00323.88 329l.33.29 15.35-15c11.07-11.16 11.44-28.89.71-39.6z" data-name="Capa 1"/></g></symbol></svg>