<svg xmlns="http://www.w3.org/2000/svg" viewBox="0 0 475.7 323.5"><title>header-svg2</title><g id="Слой_2" data-name="Слой 2"><g id="Capa_1" data-name="Capa 1"><polygon points="473.01 79.4 421.75 25.93 444.06 11.71 445.36 0.62 435.02 0 408.18 19.3 374.7 19.33 354.2 6.81 346.86 8.31 346.96 16.45 360.18 31.08 358.44 38.77 202.94 55.49 41.87 51 24.51 58.27 11.73 74.52 5.15 112.52 3.99 139.83 0 165.34 1.1 190.75 5.58 191.66 12.1 184.49 17.4 160.65 13.1 127.58 14.6 127.36 24.69 177.7 17.82 221.39 24.09 308.58 24.69 318.24 30.81 323.46 57.87 323.5 66.58 320.87 42.38 281.45 54.39 231.39 60.68 231.4 82.62 297.96 93.93 315.04 99.51 318.48 129.38 318.5 133.21 313.7 107.35 297.82 89.83 243.84 94.22 235.08 104.52 236.03 110.98 251.86 120.35 236.43 129.42 251.93 137.11 235.1 159.73 217.71 240.01 210.02 253.48 226.5 264.84 307.03 270.81 318.6 298.17 318.59 301.12 314.25 284.49 291.11 282.49 247.04 291.47 252.03 300.93 281.3 312.95 319.31 318.35 323.49 342.82 323.5 344.85 317.98 337.7 311.35 314.62 266.25 319.94 218.99 345.8 199.86 383.47 129.89 426.83 109.87 466.7 105.33 470.12 101.63 475.69 85.9 473.01 79.4"/></g></g></svg>