<svg xmlns="http://www.w3.org/2000/svg" viewBox="0 0 25.29 24.51"><defs><style>.cls-1{fill:#030104;}</style></defs><title>header-svg1</title><g id="Слой_2" data-name="Слой 2"><g id="Capa_1" data-name="Capa 1"><path class="cls-1" d="M25.29,4.78c.05-1-1.14-1.35-1.4-2a3.79,3.79,0,0,0,.32-1.68c-.05-.35-.83.44-1,.29s.11-1-.18-1.38c-.15-.21-.49,1.33-.74,1.44s-.5-.35-.83-.95c-.53-1-.24,1.13-.19,1.53a3.3,3.3,0,0,0-2.69,2.37C18.18,5.75,17,8.72,14.71,8.87,12,9,9,6.51,7.57,5.05c-.76-.77-1.31-3-2.64-2.83-.6.08-1.07.93-1.77,1.11,0,0-3.6.89-3.12,1.86C.33,5.76,1.9,6.5,3.1,7a.1.1,0,0,1,.07.13A.11.11,0,0,1,3,7.22C2,7,1,7,2,7.88A14.14,14.14,0,0,0,4.1,9a.1.1,0,0,1,.06.14A.11.11,0,0,1,4,9.17c-.72-.17-1.38-.25-1.34.07C2.78,10,5.52,12,5.52,12c-.34.43,1.07,2,1.29,2.15-.32-.11-.67,0-.21.43.67.61.82,1.6,1.4,2.18,1.7,1.69,4.25.41,5.56,3.26l.63,1.27a.62.62,0,0,1,0,.5.57.57,0,0,1-.39.3l-1.7.35a.51.51,0,0,0-.4.54.5.5,0,0,0,.55.45l1.68-.15a.12.12,0,0,1,.13.07.14.14,0,0,1,0,.15l-.14.17a.5.5,0,0,0,.07.7.46.46,0,0,0,.32.11.49.49,0,0,0,.38-.18l.71-.85a.56.56,0,0,1,.55-.19l2.47.53a.49.49,0,0,0,.58-.33.5.5,0,0,0-.31-.63l-2.24-.75a.53.53,0,0,1-.37-.46c-.06-.39-.13-.9-.18-1.28a.54.54,0,0,1,.38-.58c1.13-.34,1.74-1.72,2.47-2.65a2.33,2.33,0,0,1,1.35-.84C23,15.71,24,12.67,24.32,9.45c.18-1.9-.71-2.67-1.18-4.08C23.73,5.19,24.38,4.31,25.29,4.78ZM22.06,3.72a.39.39,0,0,1-.39-.39.4.4,0,0,1,.39-.4.39.39,0,0,1,.4.4A.39.39,0,0,1,22.06,3.72Z"/></g></g></svg>