<svg xmlns="http://www.w3.org/2000/svg" viewBox="0 0 47.41 44.76"><title>header-svg3</title><g id="Слой_2" data-name="Слой 2"><g id="Capa_1" data-name="Capa 1"><path d="M47.07,3.14C43-1,35.21-1,27.86,2.79a13.37,13.37,0,0,0,4,10.38,13.69,13.69,0,0,0,8,4C45.5,10.38,48.44,4.5,47.07,3.14Zm-7.76,2.6A1.62,1.62,0,0,1,37,3.45a1.61,1.61,0,0,1,2.29,0A1.62,1.62,0,0,1,39.31,5.74Z"/><path d="M25.2,4.34c-.55.36-1.08.73-1.61,1.13L22.33,4.8A2.87,2.87,0,0,0,19,5.3l-8.86,8.87a2.83,2.83,0,0,0,.7,4.52l2,1.06A44.86,44.86,0,0,0,9.44,32L.69,35a1,1,0,0,0-.1,1.89l3.81,1.8a3.51,3.51,0,0,1,1.7,1.7l1.8,3.81a1,1,0,0,0,1.89-.1l3-8.77c4.1-.67,11.23-3.81,17.42-8.54l.69,2.14a1.15,1.15,0,0,0,.84.77,1.13,1.13,0,0,0,1.09-.31l.75-.74a3.32,3.32,0,0,0,1-2.14l.26-3.76c1.09-1.09,2.11-2.18,3.08-3.26A16.48,16.48,0,0,1,30,15,16.17,16.17,0,0,1,25.2,4.34Z"/></g></g></svg>