<svg xmlns="http://www.w3.org/2000/svg" viewBox="0 0 550.8 432.77"><title>mail</title><g id="Слой_2" data-name="Слой 2"><g id="Capa_1" data-name="Capa 1"><path d="M501.61,432.77a47.09,47.09,0,0,0,32.23-12.16l-156-156.06c-3.74,2.68-7.37,5.29-10.8,7.77q-17.52,12.9-28.43,20.13T309.51,307.2q-18.13,7.55-33.81,7.53h-.61q-15.68,0-33.81-7.53t-29.05-14.75q-10.92-7.21-28.43-20.13c-3.26-2.39-6.87-5-10.77-7.81L17,420.61a47.07,47.07,0,0,0,32.23,12.16Z"/><path d="M31.05,166.29A163,163,0,0,1,0,139.54V377L137.54,239.43Q96.28,210.62,31.05,166.29Z"/><path d="M520.06,166.29q-62.8,42.5-106.75,73.19L550.8,377V139.54A170.06,170.06,0,0,1,520.06,166.29Z"/><path d="M501.61,0H49.18Q25.51,0,12.76,16T0,55.94q0,19.35,16.9,42t36,35.5q10.44,7.38,63,43.8c18.92,13.11,35.37,24.54,49.51,34.4,12.05,8.39,22.44,15.66,31,21.7l4.59,3.27,8.48,6.1q10,7.23,16.59,11.69t16,10a92.82,92.82,0,0,0,17.67,8.3,48.7,48.7,0,0,0,15.37,2.77h.61a48.75,48.75,0,0,0,15.37-2.77,92.21,92.21,0,0,0,17.67-8.3q9.38-5.54,16-10t16.6-11.69l8.47-6.1c2.05-1.47,3.6-2.58,4.59-3.27l31.11-21.62,112.74-78.28a146.09,146.09,0,0,0,37.49-37.8q15-22.12,15.06-46.41,0-20.3-14.6-34.74T501.61,0Z"/></g></g></svg>