<svg xmlns="http://www.w3.org/2000/svg" viewBox="0 0 348.08 347.29"><title>phone</title><g id="Слой_2" data-name="Слой 2"><g id="Capa_1" data-name="Capa 1"><path d="M340.27,274.69l-53.75-53.76c-10.71-10.67-28.44-10.34-39.52.74l-27.08,27.08-5.35-3c-17.1-9.48-40.5-22.47-65.14-47.12s-37.7-48.14-47.2-65.25c-1-1.82-2-3.57-2.92-5.23L117.49,110l8.93-9c11.1-11.1,11.41-28.83.73-39.52L73.39,7.8C62.71-2.88,45-2.56,33.87,8.54L18.72,23.78l.42.41a87.66,87.66,0,0,0-12.49,22A91.5,91.5,0,0,0,1.1,68.55C-6,127.39,20.89,181.17,93.87,254.15,194.74,355,276,347.4,279.54,347a90.64,90.64,0,0,0,22.4-5.62A87.59,87.59,0,0,0,323.88,329l.33.29,15.35-15C350.63,303.13,351,285.4,340.27,274.69Z"/></g></g></svg>